<svg xmlns="http://www.w3.org/2000/svg" width="308" height="203" fill="none"><rect width="306" height="201" x="1" y="1" fill="#000" fill-opacity=".5" stroke="#fff" stroke-width="2" rx="17"/><path fill="#fff" d="m32.042 28.908-.85 5.87h-2.51l1.69-5.87h1.67Zm3.799 0-.86 5.87h-2.5l1.69-5.87h1.67ZM38.8 43V28.908h8.984v2.12H41.32v4.17h5.909v2.05H41.32V43H38.8Zm12.373-12.46c-.8 0-1.455-.636-1.455-1.436a1.45 1.45 0 0 1 1.455-1.436c.791 0 1.446.645 1.446 1.436 0 .8-.654 1.435-1.446 1.435ZM49.953 43V32.326h2.431V43h-2.431Zm5.02 0V32.326h2.431v1.64h.166c.362-1.142 1.338-1.816 2.744-1.816.371 0 .752.05.987.118v2.177a6.133 6.133 0 0 0-1.211-.136c-1.621 0-2.686.966-2.686 2.49V43h-2.431Zm11.719.215c-2.715 0-4.356-1.25-4.56-3.057v-.02h2.411l.01.02c.254.742.967 1.26 2.178 1.26 1.21 0 2.05-.547 2.05-1.348v-.02c0-.624-.468-1.034-1.64-1.298l-1.729-.39c-2.03-.45-2.998-1.407-2.998-2.98v-.009c0-1.924 1.758-3.252 4.278-3.252 2.598 0 4.15 1.29 4.306 3.018v.02h-2.285l-.01-.03c-.175-.674-.878-1.22-2.021-1.22-1.084 0-1.865.526-1.865 1.327v.01c0 .625.449 1.006 1.601 1.27l1.729.38c2.09.47 3.076 1.358 3.076 2.91v.02c0 2.031-1.904 3.389-4.531 3.389Zm10.703-.166c-2.45 0-3.457-.82-3.457-2.881v-5.957h-1.66v-1.885h1.66V29.71h2.471v2.617h2.256v1.885h-2.256v5.38c0 1.065.42 1.514 1.435 1.514.342 0 .528-.01.82-.039v1.875c-.35.069-.8.108-1.269.108ZM80.941 43V28.908h2.89l4.239 10.84h.166l4.228-10.84h2.89V43H93.09V32.98h-.176L89.007 43h-1.719l-3.906-10.02h-.166V43h-2.275Zm21.846.215c-3.203 0-5.137-2.09-5.137-5.547v-.02c0-3.427 1.963-5.527 5.137-5.527 3.183 0 5.136 2.09 5.136 5.527v.02c0 3.457-1.943 5.547-5.136 5.547Zm0-1.973c1.689 0 2.646-1.318 2.646-3.564v-.02c0-2.246-.967-3.574-2.646-3.574-1.69 0-2.657 1.328-2.657 3.574v.02c0 2.246.967 3.564 2.657 3.564ZM112.406 43l-3.799-10.674h2.598l2.471 8.301h.166l2.451-8.3h2.559L115.072 43h-2.666Zm12.237.215c-3.174 0-5.098-2.13-5.098-5.528v-.01c0-3.359 1.944-5.556 4.981-5.556s4.912 2.129 4.912 5.352v.8h-7.461c.029 1.914 1.064 3.028 2.715 3.028 1.318 0 2.07-.664 2.304-1.153l.03-.068h2.314l-.029.088c-.342 1.377-1.768 3.047-4.668 3.047Zm-.088-9.19c-1.357 0-2.373.918-2.559 2.618h5.069c-.166-1.748-1.153-2.618-2.51-2.618ZM131.47 43V32.326h2.431v1.64h.166c.362-1.142 1.338-1.816 2.744-1.816.371 0 .752.05.987.118v2.177a6.137 6.137 0 0 0-1.211-.136c-1.621 0-2.686.966-2.686 2.49V43h-2.431Zm9.199-8.223.85-5.869h2.51l-1.69 5.87h-1.67Zm3.799 0 .85-5.869h2.509l-1.699 5.87h-1.66ZM158.619 43l-3.779-14.092h2.627l2.412 10.576h.146l2.774-10.576h2.236l2.813 10.576h.136l2.412-10.576h2.608L169.225 43h-2.364l-2.871-10.088h-.146L160.992 43h-2.373Zm19.825.215c-3.203 0-5.137-2.09-5.137-5.547v-.02c0-3.427 1.963-5.527 5.137-5.527 3.183 0 5.136 2.09 5.136 5.527v.02c0 3.457-1.943 5.547-5.136 5.547Zm0-1.973c1.689 0 2.646-1.318 2.646-3.564v-.02c0-2.246-.967-3.574-2.646-3.574-1.69 0-2.657 1.328-2.657 3.574v.02c0 2.246.967 3.564 2.657 3.564Zm10.713 1.973c-2.402 0-3.633-1.446-3.633-3.985v-6.904h2.432v6.348c0 1.65.615 2.49 2.08 2.49 1.572 0 2.412-1.016 2.412-2.617v-6.22h2.432V43h-2.432v-1.621h-.166c-.498 1.143-1.582 1.836-3.125 1.836Zm8.389-.215V28.195h2.432V43h-2.432Zm8.956.176c-2.676 0-4.375-2.12-4.375-5.498v-.02c0-3.398 1.669-5.508 4.375-5.508 1.464 0 2.685.723 3.242 1.875h.166v-5.83h2.441V43h-2.441v-1.67h-.166c-.586 1.162-1.739 1.846-3.242 1.846Zm.761-2.051c1.66 0 2.686-1.309 2.686-3.447v-.02c0-2.139-1.035-3.457-2.686-3.457-1.65 0-2.666 1.309-2.666 3.457v.02c0 2.148 1.006 3.447 2.666 3.447ZM220.194 43V28.908h2.519v11.973h6.465V43h-8.984Zm12.295-12.46a1.442 1.442 0 0 1-1.455-1.436c0-.791.654-1.436 1.455-1.436.791 0 1.445.645 1.445 1.436 0 .8-.654 1.435-1.445 1.435ZM231.268 43V32.326h2.432V43h-2.432Zm5.118 0V28.195h2.432v8.506h.166l3.935-4.375h2.813l-4.297 4.512 4.59 6.162h-2.93l-3.428-4.62-.849.87V43h-2.432Zm15.088.215c-3.174 0-5.097-2.13-5.097-5.528v-.01c0-3.359 1.943-5.556 4.98-5.556 3.037 0 4.912 2.129 4.912 5.352v.8h-7.461c.029 1.914 1.065 3.028 2.715 3.028 1.318 0 2.07-.664 2.305-1.153l.029-.068h2.314l-.029.088c-.342 1.377-1.767 3.047-4.668 3.047Zm-.088-9.19c-1.357 0-2.373.918-2.558 2.618h5.068c-.166-1.748-1.152-2.618-2.51-2.618Zm16.046 9.024c-2.451 0-3.457-.82-3.457-2.881v-5.957h-1.66v-1.885h1.66V29.71h2.471v2.617h2.256v1.885h-2.256v5.38c0 1.065.42 1.514 1.435 1.514.342 0 .528-.01.821-.039v1.875a6.926 6.926 0 0 1-1.27.108Zm7.803.166c-3.203 0-5.137-2.09-5.137-5.547v-.02c0-3.427 1.963-5.527 5.137-5.527 3.184 0 5.137 2.09 5.137 5.527v.02c0 3.457-1.943 5.547-5.137 5.547Zm0-1.973c1.69 0 2.647-1.318 2.647-3.564v-.02c0-2.246-.967-3.574-2.647-3.574-1.689 0-2.656 1.328-2.656 3.574v.02c0 2.246.967 3.564 2.656 3.564Zm-221.84 26.11c-3.271 0-5.351-1.612-5.527-4.043l-.01-.137H50.3l.01.098c.117 1.181 1.376 1.962 3.163 1.962 1.7 0 2.891-.84 2.891-2.05v-.01c0-1.016-.732-1.631-2.549-2.022l-1.513-.312c-2.881-.606-4.131-1.953-4.131-4.053v-.01c0-2.52 2.168-4.218 5.215-4.218 3.124 0 5.068 1.709 5.244 3.974l.01.127h-2.413l-.02-.117c-.175-1.094-1.22-1.875-2.831-1.865-1.563 0-2.676.732-2.676 1.933v.01c0 .996.713 1.621 2.47 1.992l1.514.323c2.97.625 4.21 1.816 4.21 3.945v.01c0 2.744-2.12 4.463-5.499 4.463Zm12.247-.137c-3.174 0-5.098-2.13-5.098-5.528v-.01c0-3.359 1.944-5.556 4.98-5.556 3.038 0 4.913 2.129 4.913 5.352v.8h-7.461c.03 1.914 1.064 3.028 2.715 3.028 1.318 0 2.07-.664 2.304-1.153l.03-.068h2.314l-.03.088c-.341 1.377-1.767 3.047-4.667 3.047Zm-.088-9.19c-1.358 0-2.373.918-2.559 2.618h5.069c-.166-1.748-1.153-2.618-2.51-2.618ZM72.468 67V56.326H74.9v1.631h.166c.508-1.142 1.533-1.836 3.076-1.836 2.383 0 3.682 1.436 3.682 3.975V67h-2.432v-6.338c0-1.66-.674-2.5-2.148-2.5-1.446 0-2.344 1.016-2.344 2.617V67h-2.432Zm15.675.176c-2.676 0-4.375-2.12-4.375-5.498v-.02c0-3.398 1.67-5.508 4.375-5.508 1.464 0 2.685.723 3.242 1.875h.166v-5.83h2.441V67h-2.441v-1.67h-.166c-.586 1.162-1.739 1.846-3.242 1.846Zm.761-2.051c1.66 0 2.686-1.309 2.686-3.447v-.02c0-2.139-1.035-3.457-2.686-3.457-1.65 0-2.666 1.309-2.666 3.457v.02c0 2.148 1.006 3.447 2.666 3.447ZM105.731 67v-5.557l-4.941-8.535h2.754l3.359 6.045h.166l3.36-6.045h2.753l-4.941 8.535V67h-2.51Zm12.032.215c-3.203 0-5.137-2.09-5.137-5.547v-.02c0-3.427 1.963-5.527 5.137-5.527 3.183 0 5.137 2.09 5.137 5.527v.02c0 3.457-1.944 5.547-5.137 5.547Zm0-1.973c1.689 0 2.646-1.318 2.646-3.564v-.02c0-2.246-.966-3.574-2.646-3.574-1.69 0-2.656 1.328-2.656 3.574v.02c0 2.246.966 3.564 2.656 3.564Zm10.713 1.973c-2.402 0-3.633-1.446-3.633-3.985v-6.904h2.432v6.348c0 1.65.615 2.49 2.08 2.49 1.572 0 2.412-1.016 2.412-2.617v-6.22h2.432V67h-2.432v-1.621h-.166c-.498 1.142-1.582 1.836-3.125 1.836ZM141.954 67V52.908h2.187l6.924 9.707h.156v-9.707h2.422V67h-2.178l-6.924-9.707h-.156V67h-2.431Zm19.131.215c-3.203 0-5.137-2.09-5.137-5.547v-.02c0-3.427 1.963-5.527 5.137-5.527 3.183 0 5.136 2.09 5.136 5.527v.02c0 3.457-1.943 5.547-5.136 5.547Zm0-1.973c1.689 0 2.646-1.318 2.646-3.564v-.02c0-2.246-.967-3.574-2.646-3.574-1.69 0-2.656 1.328-2.656 3.574v.02c0 2.246.966 3.564 2.656 3.564Zm11.377 1.807c-2.451 0-3.457-.82-3.457-2.881v-5.957h-1.66v-1.885h1.66V53.71h2.471v2.617h2.256v1.885h-2.256v5.38c0 1.065.42 1.515 1.435 1.515.342 0 .528-.01.821-.04v1.875a6.926 6.926 0 0 1-1.27.108Zm4.542-12.51a1.443 1.443 0 0 1-1.456-1.436c0-.79.655-1.435 1.456-1.435.791 0 1.445.645 1.445 1.435a1.44 1.44 0 0 1-1.445 1.436ZM175.783 67V56.326h2.431V67h-2.431Zm5.801 0v-8.79h-1.748v-1.884h1.748v-1.054c0-2.13 1.074-3.174 3.457-3.174.518 0 .957.029 1.348.097v1.7a5.902 5.902 0 0 0-.83-.05c-1.143 0-1.582.548-1.582 1.563v.918h2.314v1.885h-2.275V67h-2.432Zm7.901-12.46a1.442 1.442 0 0 1-1.455-1.437c0-.79.654-1.435 1.455-1.435.791 0 1.445.645 1.445 1.435a1.44 1.44 0 0 1-1.445 1.436ZM188.264 67V56.326h2.432V67h-2.432Zm9.6.215c-3.213 0-5.107-2.08-5.107-5.567v-.02c0-3.446 1.884-5.507 5.097-5.507 2.744 0 4.385 1.523 4.658 3.73v.04h-2.294l-.01-.03c-.225-1.035-1.016-1.777-2.344-1.777-1.66 0-2.637 1.309-2.637 3.545v.02c0 2.265.987 3.593 2.637 3.593 1.26 0 2.031-.576 2.334-1.699l.02-.04 2.294-.009-.019.078c-.352 2.188-1.924 3.643-4.629 3.643Zm9.473-.04c-2.031 0-3.506-1.25-3.506-3.193v-.02c0-1.903 1.455-3.017 4.053-3.173l2.744-.166v-.918c0-1.064-.693-1.65-2.002-1.65-1.113 0-1.836.4-2.08 1.103l-.01.04h-2.295l.01-.089c.235-1.797 1.953-2.988 4.492-2.988 2.745 0 4.287 1.328 4.287 3.584V67h-2.402v-1.465h-.166c-.586 1.035-1.719 1.64-3.125 1.64Zm-1.103-3.31c0 .908.771 1.446 1.845 1.446 1.465 0 2.549-.958 2.549-2.227v-.86l-2.402.157c-1.358.088-1.992.586-1.992 1.465v.02Zm13.516 3.184c-2.452 0-3.457-.82-3.457-2.881v-5.957h-1.661v-1.885h1.661V53.71h2.47v2.617h2.256v1.885h-2.256v5.38c0 1.065.42 1.515 1.436 1.515.342 0 .527-.01.82-.04v1.875a6.914 6.914 0 0 1-1.269.108Zm4.541-12.51a1.442 1.442 0 0 1-1.455-1.436c0-.79.654-1.435 1.455-1.435.791 0 1.445.645 1.445 1.435a1.44 1.44 0 0 1-1.445 1.436ZM223.07 67V56.326h2.432V67h-2.432Zm9.63.215c-3.204 0-5.137-2.09-5.137-5.547v-.02c0-3.427 1.963-5.527 5.137-5.527 3.183 0 5.136 2.09 5.136 5.527v.02c0 3.457-1.943 5.547-5.136 5.547Zm0-1.973c1.689 0 2.646-1.318 2.646-3.564v-.02c0-2.246-.967-3.574-2.646-3.574-1.69 0-2.657 1.328-2.657 3.574v.02c0 2.246.967 3.564 2.657 3.564ZM239.878 67V56.326h2.431v1.631h.166c.508-1.142 1.534-1.836 3.077-1.836 2.382 0 3.681 1.436 3.681 3.975V67h-2.431v-6.338c0-1.66-.674-2.5-2.149-2.5-1.445 0-2.344 1.016-2.344 2.617V67h-2.431Zm15.86.215c-2.715 0-4.356-1.25-4.561-3.057v-.02h2.412l.01.02c.254.742.967 1.26 2.178 1.26 1.211 0 2.05-.547 2.05-1.348v-.02c0-.624-.468-1.034-1.64-1.298l-1.729-.39c-2.031-.45-2.998-1.407-2.998-2.98v-.009c0-1.924 1.758-3.252 4.278-3.252 2.597 0 4.15 1.29 4.306 3.018v.02h-2.285l-.01-.03c-.176-.674-.879-1.22-2.021-1.22-1.084 0-1.865.526-1.865 1.327v.01c0 .625.449 1.006 1.601 1.27l1.729.38c2.089.47 3.076 1.358 3.076 2.91v.02c0 2.031-1.905 3.389-4.531 3.389ZM42.436 90V78.727h1.367L49.92 87.5h.125v-8.773h1.39V90h-1.367l-6.117-8.742h-.125V90h-1.39Zm14.684.148c-2.399 0-3.883-1.656-3.883-4.351v-.016c0-2.703 1.484-4.351 3.883-4.351 2.398 0 3.883 1.648 3.883 4.351v.016c0 2.695-1.485 4.351-3.883 4.351Zm0-1.203c1.593 0 2.492-1.164 2.492-3.148v-.016c0-1.992-.899-3.148-2.492-3.148-1.594 0-2.492 1.156-2.492 3.148v.016c0 1.984.898 3.148 2.492 3.148Zm8.504 1.118c-1.734 0-2.46-.641-2.46-2.25v-5.11h-1.329v-1.125h1.328v-2.18h1.406v2.18h1.844v1.125H64.57v4.766c0 .992.344 1.39 1.22 1.39.241 0 .374-.007.624-.03v1.155a4.508 4.508 0 0 1-.789.079Zm3.06-10.11a.94.94 0 0 1-.938-.937.94.94 0 0 1 .937-.938.94.94 0 0 1 .938.938.94.94 0 0 1-.938.937ZM67.995 90v-8.422h1.359V90h-1.36ZM72 90v-7.297h-1.398v-1.125H72v-.937c0-1.68.844-2.485 2.445-2.485.328 0 .625.024.907.078v1.086a3.704 3.704 0 0 0-.633-.039c-.969 0-1.36.477-1.36 1.399v.898h1.914v1.125H73.36V90H72Zm5.473-10.047a.94.94 0 0 1-.937-.937.94.94 0 0 1 .937-.938.94.94 0 0 1 .938.938.94.94 0 0 1-.938.937ZM76.786 90v-8.422h1.359V90h-1.36Zm6.887.148c-2.36 0-3.867-1.71-3.867-4.382v-.016c0-2.617 1.5-4.32 3.859-4.32 2.047 0 3.273 1.18 3.523 2.68l.008.046h-1.351l-.008-.023c-.211-.828-.961-1.5-2.172-1.5-1.516 0-2.469 1.219-2.469 3.117v.016c0 1.937.969 3.18 2.469 3.18 1.133 0 1.852-.5 2.164-1.438l.016-.047 1.343-.008-.015.086c-.344 1.523-1.477 2.61-3.5 2.61Zm7.34 0c-1.601 0-2.812-.968-2.812-2.5v-.015c0-1.5 1.109-2.367 3.07-2.485L93.685 85v-.766c0-1.039-.633-1.601-1.89-1.601-1.008 0-1.672.375-1.891 1.031l-.008.023h-1.36l.008-.046c.22-1.32 1.5-2.211 3.297-2.211 2.055 0 3.203 1.054 3.203 2.804V90h-1.359v-1.242h-.125c-.531.898-1.414 1.39-2.547 1.39Zm-1.422-2.53c0 .85.727 1.35 1.703 1.35 1.383 0 2.391-.906 2.391-2.109v-.765l-2.25.14c-1.281.079-1.844.532-1.844 1.368v.015Zm10.45 2.445c-1.734 0-2.461-.641-2.461-2.25v-5.11h-1.328v-1.125h1.328v-2.18h1.406v2.18h1.844v1.125h-1.844v4.766c0 .992.344 1.39 1.219 1.39.242 0 .375-.007.625-.03v1.155a4.508 4.508 0 0 1-.789.079Zm3.059-10.11a.94.94 0 0 1-.938-.937.94.94 0 0 1 .938-.938.94.94 0 0 1 .937.938.94.94 0 0 1-.937.937ZM102.412 90v-8.422h1.36V90h-1.36Zm6.903.148c-2.398 0-3.883-1.656-3.883-4.351v-.016c0-2.703 1.485-4.351 3.883-4.351 2.399 0 3.883 1.648 3.883 4.351v.016c0 2.695-1.484 4.351-3.883 4.351Zm0-1.203c1.594 0 2.492-1.164 2.492-3.148v-.016c0-1.992-.898-3.148-2.492-3.148-1.593 0-2.492 1.156-2.492 3.148v.016c0 1.984.899 3.148 2.492 3.148ZM114.827 90v-8.422h1.36v1.266h.125c.422-.89 1.211-1.414 2.453-1.414 1.891 0 2.945 1.117 2.945 3.117V90h-1.359v-5.125c0-1.516-.625-2.242-1.969-2.242s-2.195.906-2.195 2.383V90h-1.36Zm11.755.148c-1.875 0-3.164-.906-3.32-2.296h1.39c.227.703.899 1.164 1.977 1.164 1.133 0 1.937-.54 1.937-1.305v-.016c0-.57-.429-.968-1.469-1.218l-1.304-.313c-1.578-.375-2.289-1.062-2.289-2.273v-.008c0-1.399 1.343-2.453 3.133-2.453 1.765 0 2.992.882 3.179 2.257h-1.336c-.179-.664-.836-1.124-1.851-1.124-1 0-1.735.515-1.735 1.257v.016c0 .57.422.93 1.414 1.172l1.297.312c1.586.383 2.352 1.07 2.352 2.274v.015c0 1.5-1.461 2.54-3.375 2.54Zm9.024-.148v-8.422h1.36v1.281h.125c.375-.906 1.171-1.43 2.273-1.43 1.141 0 1.938.602 2.328 1.477h.125c.453-.89 1.414-1.476 2.578-1.476 1.719 0 2.68.984 2.68 2.75V90h-1.359v-5.508c0-1.242-.571-1.86-1.758-1.86-1.172 0-1.946.884-1.946 1.954V90h-1.359v-5.719c0-1-.687-1.648-1.75-1.648-1.101 0-1.937.96-1.937 2.148V90h-1.36Zm15.755.148c-1.602 0-2.813-.968-2.813-2.5v-.015c0-1.5 1.11-2.367 3.07-2.485l2.415-.148v-.766c0-1.039-.633-1.601-1.891-1.601-1.008 0-1.672.375-1.891 1.031l-.008.023h-1.359l.008-.046c.219-1.32 1.5-2.211 3.297-2.211 2.054 0 3.203 1.054 3.203 2.804V90h-1.359v-1.242h-.125c-.532.898-1.415 1.39-2.547 1.39Zm-1.422-2.53c0 .85.726 1.35 1.703 1.35 1.383 0 2.391-.906 2.391-2.109v-.765l-2.25.14c-1.282.079-1.844.532-1.844 1.368v.015Zm7.863 5.335c-.179 0-.414-.016-.601-.047V91.79c.164.031.375.04.562.04.774 0 1.243-.352 1.547-1.321l.157-.5-3.118-8.43h1.453l2.313 6.93h.125l2.305-6.93h1.429l-3.289 8.938c-.695 1.89-1.39 2.437-2.883 2.437Zm12.228-13a.94.94 0 0 1-.938-.937.94.94 0 0 1 .938-.938.94.94 0 0 1 .937.938.94.94 0 0 1-.937.937ZM169.342 90v-8.422h1.36V90h-1.36Zm3.442 0v-8.422h1.36v1.266h.125c.422-.89 1.211-1.414 2.453-1.414 1.891 0 2.945 1.117 2.945 3.117V90h-1.359v-5.125c0-1.516-.625-2.242-1.969-2.242s-2.195.906-2.195 2.383V90h-1.36Zm12.309.148c-2.359 0-3.867-1.71-3.867-4.382v-.016c0-2.617 1.5-4.32 3.86-4.32 2.046 0 3.273 1.18 3.523 2.68l.008.046h-1.352l-.008-.023c-.21-.828-.96-1.5-2.171-1.5-1.516 0-2.469 1.219-2.469 3.117v.016c0 1.937.969 3.18 2.469 3.18 1.132 0 1.851-.5 2.164-1.438l.015-.047 1.344-.008-.016.086c-.343 1.523-1.476 2.61-3.5 2.61Zm5.106-.148V78.234h1.36V90h-1.36Zm6.309.148c-1.914 0-2.898-1.125-2.898-3.117v-5.453h1.359v5.125c0 1.516.547 2.242 1.891 2.242 1.484 0 2.273-.906 2.273-2.382v-4.985h1.36V90h-1.36v-1.258h-.125c-.414.899-1.265 1.406-2.5 1.406Zm9.153 0c-2.133 0-3.531-1.726-3.531-4.351v-.016c0-2.64 1.391-4.351 3.531-4.351 1.157 0 2.164.578 2.625 1.476h.125v-4.672h1.36V90h-1.36v-1.344h-.125c-.515.938-1.453 1.492-2.625 1.492Zm.313-1.203c1.531 0 2.469-1.203 2.469-3.148v-.016c0-1.945-.938-3.148-2.469-3.148-1.539 0-2.453 1.187-2.453 3.148v.016c0 1.96.914 3.148 2.453 3.148Zm9.363 1.203c-2.406 0-3.859-1.687-3.859-4.328v-.007c0-2.602 1.484-4.383 3.774-4.383 2.289 0 3.679 1.703 3.679 4.218v.532h-6.062c.039 1.742 1 2.757 2.5 2.757 1.14 0 1.843-.539 2.07-1.046l.031-.07h1.36l-.016.062c-.289 1.14-1.492 2.265-3.477 2.265Zm-.093-7.507c-1.25 0-2.203.851-2.352 2.453h4.656c-.14-1.664-1.062-2.453-2.304-2.453Zm11.649 7.507c-1.601 0-2.812-.968-2.812-2.5v-.015c0-1.5 1.109-2.367 3.07-2.485l2.414-.148v-.766c0-1.039-.633-1.601-1.891-1.601-1.007 0-1.671.375-1.89 1.031l-.008.023h-1.359l.007-.046c.219-1.32 1.5-2.211 3.297-2.211 2.055 0 3.203 1.054 3.203 2.804V90h-1.359v-1.242h-.125c-.531.898-1.414 1.39-2.547 1.39Zm-1.422-2.53c0 .85.727 1.35 1.703 1.35 1.383 0 2.391-.906 2.391-2.109v-.765l-2.25.14c-1.281.079-1.844.532-1.844 1.368v.015ZM233.007 90V78.234h1.359V90h-1.359Zm6.926.148c-2.406 0-3.859-1.687-3.859-4.328v-.007c0-2.602 1.484-4.383 3.773-4.383s3.68 1.703 3.68 4.218v.532h-6.063c.039 1.742 1 2.757 2.5 2.757 1.141 0 1.844-.539 2.071-1.046l.031-.07h1.359l-.015.062c-.289 1.14-1.493 2.265-3.477 2.265Zm-.094-7.507c-1.25 0-2.203.851-2.351 2.453h4.656c-.141-1.664-1.062-2.453-2.305-2.453ZM245.156 90v-8.422h1.36v1.25h.125c.32-.883 1.109-1.398 2.25-1.398.257 0 .547.03.679.054v1.32a4.886 4.886 0 0 0-.836-.077c-1.296 0-2.218.82-2.218 2.054V90h-1.36Zm8.762.063c-1.734 0-2.46-.641-2.46-2.25v-5.11h-1.329v-1.125h1.329v-2.18h1.406v2.18h1.844v1.125h-1.844v4.766c0 .992.344 1.39 1.219 1.39.242 0 .375-.007.625-.03v1.155a4.52 4.52 0 0 1-.79.079Zm5.075.085c-1.875 0-3.164-.906-3.32-2.296h1.39c.227.703.899 1.164 1.977 1.164 1.133 0 1.937-.54 1.937-1.305v-.016c0-.57-.429-.968-1.468-1.218l-1.305-.313c-1.578-.375-2.289-1.062-2.289-2.273v-.008c0-1.399 1.344-2.453 3.133-2.453 1.765 0 2.992.882 3.179 2.257h-1.335c-.18-.664-.836-1.124-1.852-1.124-1 0-1.734.515-1.734 1.257v.016c0 .57.421.93 1.414 1.172l1.297.312c1.585.383 2.351 1.07 2.351 2.274v.015c0 1.5-1.461 2.54-3.375 2.54Zm4.661 2.72.679-4.446h1.555l-1.226 4.445h-1.008Zm-235.096 15.28c-1.875 0-3.164-.906-3.32-2.296h1.39c.227.703.9 1.164 1.977 1.164 1.133 0 1.938-.539 1.938-1.305v-.016c0-.57-.43-.968-1.469-1.218l-1.305-.313c-1.578-.375-2.289-1.062-2.289-2.273v-.008c0-1.399 1.344-2.453 3.133-2.453 1.766 0 2.992.882 3.18 2.258h-1.336c-.18-.665-.836-1.126-1.852-1.126-1 0-1.734.516-1.734 1.258v.016c0 .57.422.93 1.414 1.172l1.297.312c1.586.383 2.351 1.071 2.351 2.274v.015c0 1.5-1.46 2.539-3.375 2.539Zm8.466 0c-2.399 0-3.883-1.656-3.883-4.351v-.016c0-2.703 1.484-4.351 3.883-4.351 2.398 0 3.883 1.648 3.883 4.351v.016c0 2.695-1.485 4.351-3.883 4.351Zm0-1.203c1.593 0 2.492-1.164 2.492-3.148v-.016c0-1.992-.898-3.148-2.492-3.148-1.594 0-2.492 1.156-2.492 3.148v.016c0 1.984.898 3.148 2.492 3.148Zm8.332 1.203c-1.914 0-2.898-1.125-2.898-3.117v-5.453h1.36v5.125c0 1.516.546 2.242 1.89 2.242 1.484 0 2.273-.906 2.273-2.383v-4.984h1.36V108h-1.36v-1.258h-.125c-.414.899-1.265 1.406-2.5 1.406ZM51.4 108v-8.422h1.36v1.266h.124c.422-.89 1.211-1.414 2.453-1.414 1.89 0 2.945 1.117 2.945 3.117V108h-1.359v-5.125c0-1.516-.625-2.242-1.969-2.242-1.343 0-2.195.906-2.195 2.383V108H51.4Zm11.973.148c-2.133 0-3.531-1.726-3.531-4.351v-.016c0-2.64 1.39-4.351 3.53-4.351 1.157 0 2.165.578 2.626 1.476h.125v-4.672h1.36V108h-1.36v-1.344h-.125c-.516.938-1.453 1.492-2.625 1.492Zm.312-1.203c1.532 0 2.47-1.203 2.47-3.148v-.016c0-1.945-.938-3.148-2.47-3.148-1.539 0-2.453 1.187-2.453 3.148v.016c0 1.961.914 3.148 2.453 3.148Zm8.817 1.203c-1.875 0-3.164-.906-3.32-2.296h1.39c.227.703.899 1.164 1.977 1.164 1.133 0 1.938-.539 1.938-1.305v-.016c0-.57-.43-.968-1.47-1.218l-1.304-.313c-1.578-.375-2.289-1.062-2.289-2.273v-.008c0-1.399 1.344-2.453 3.133-2.453 1.766 0 2.992.882 3.18 2.258H74.4c-.18-.665-.836-1.126-1.852-1.126-1 0-1.734.516-1.734 1.258v.016c0 .57.422.93 1.414 1.172l1.297.312c1.586.383 2.351 1.071 2.351 2.274v.015c0 1.5-1.46 2.539-3.375 2.539Zm4.66 2.719.68-4.445h1.555l-1.226 4.445h-1.008Zm10.947-2.719c-1.602 0-2.812-.968-2.812-2.5v-.015c0-1.5 1.109-2.367 3.07-2.485L90.78 103v-.766c0-1.039-.633-1.601-1.89-1.601-1.009 0-1.673.375-1.891 1.031l-.008.024h-1.36l.008-.047c.22-1.321 1.5-2.211 3.297-2.211 2.055 0 3.203 1.054 3.203 2.804V108h-1.36v-1.242h-.124c-.531.898-1.414 1.39-2.547 1.39Zm-1.422-2.531c0 .852.727 1.352 1.703 1.352 1.383 0 2.39-.907 2.39-2.11v-.765l-2.25.14c-1.28.078-1.843.532-1.843 1.368v.015ZM94.145 108v-8.422h1.36v1.266h.124c.422-.89 1.211-1.414 2.453-1.414 1.89 0 2.946 1.117 2.946 3.117V108h-1.36v-5.125c0-1.516-.625-2.242-1.969-2.242-1.343 0-2.195.906-2.195 2.383V108h-1.36Zm11.973.148c-2.133 0-3.531-1.726-3.531-4.351v-.016c0-2.64 1.39-4.351 3.531-4.351 1.156 0 2.164.578 2.625 1.476h.125v-4.672h1.359V108h-1.359v-1.344h-.125c-.516.938-1.453 1.492-2.625 1.492Zm.312-1.203c1.532 0 2.469-1.203 2.469-3.148v-.016c0-1.945-.937-3.148-2.469-3.148-1.539 0-2.453 1.187-2.453 3.148v.016c0 1.961.914 3.148 2.453 3.148Zm10.665-8.992a.94.94 0 0 1-.937-.937.94.94 0 0 1 .937-.938.94.94 0 0 1 .938.938.94.94 0 0 1-.938.937ZM116.408 108v-8.422h1.359V108h-1.359Zm6.887.148c-2.359 0-3.867-1.71-3.867-4.382v-.016c0-2.617 1.5-4.32 3.859-4.32 2.047 0 3.274 1.179 3.524 2.679l.007.047h-1.351l-.008-.023c-.211-.828-.961-1.5-2.172-1.5-1.515 0-2.469 1.219-2.469 3.117v.016c0 1.937.969 3.179 2.469 3.179 1.133 0 1.852-.5 2.164-1.437l.016-.047 1.344-.008-.016.086c-.344 1.523-1.477 2.609-3.5 2.609Zm8.489 0c-2.399 0-3.883-1.656-3.883-4.351v-.016c0-2.703 1.484-4.351 3.883-4.351 2.398 0 3.883 1.648 3.883 4.351v.016c0 2.695-1.485 4.351-3.883 4.351Zm0-1.203c1.594 0 2.492-1.164 2.492-3.148v-.016c0-1.992-.898-3.148-2.492-3.148-1.594 0-2.492 1.156-2.492 3.148v.016c0 1.984.898 3.148 2.492 3.148Zm5.512 1.055v-8.422h1.359v1.266h.125c.422-.89 1.211-1.414 2.453-1.414 1.891 0 2.946 1.117 2.946 3.117V108h-1.36v-5.125c0-1.516-.625-2.242-1.968-2.242-1.344 0-2.196.906-2.196 2.383V108h-1.359Zm17.071.148c-1.172 0-2.109-.554-2.625-1.492h-.125V108h-1.359V96.234h1.359v4.672h.125c.461-.898 1.469-1.476 2.625-1.476 2.141 0 3.531 1.711 3.531 4.351v.016c0 2.625-1.398 4.351-3.531 4.351Zm-.312-1.203c1.539 0 2.453-1.187 2.453-3.148v-.016c0-1.961-.914-3.148-2.453-3.148-1.532 0-2.469 1.203-2.469 3.148v.016c0 1.945.937 3.148 2.469 3.148Zm7.785 1.203c-1.601 0-2.812-.968-2.812-2.5v-.015c0-1.5 1.109-2.367 3.07-2.485l2.414-.148v-.766c0-1.039-.633-1.601-1.89-1.601-1.008 0-1.672.375-1.891 1.031l-.008.024h-1.359l.008-.047c.218-1.321 1.5-2.211 3.296-2.211 2.055 0 3.204 1.054 3.204 2.804V108h-1.36v-1.242h-.125c-.531.898-1.414 1.39-2.547 1.39Zm-1.422-2.531c0 .852.727 1.352 1.704 1.352 1.382 0 2.39-.907 2.39-2.11v-.765l-2.25.14c-1.281.078-1.844.532-1.844 1.368v.015Zm10.567 2.531c-2.132 0-3.531-1.726-3.531-4.351v-.016c0-2.64 1.391-4.351 3.531-4.351 1.157 0 2.164.578 2.625 1.476h.125v-4.672h1.36V108h-1.36v-1.344h-.125c-.515.938-1.453 1.492-2.625 1.492Zm.313-1.203c1.531 0 2.469-1.203 2.469-3.148v-.016c0-1.945-.938-3.148-2.469-3.148-1.539 0-2.453 1.187-2.453 3.148v.016c0 1.961.914 3.148 2.453 3.148Zm9.395 4.024c-2.031 0-3.328-.914-3.539-2.297l.015-.008h1.407l.007.008c.149.64.899 1.094 2.11 1.094 1.508 0 2.406-.711 2.406-1.954v-1.703h-.125c-.531.93-1.484 1.453-2.641 1.453-2.179 0-3.531-1.687-3.531-4.046v-.016c0-2.359 1.36-4.07 3.563-4.07 1.187 0 2.109.586 2.625 1.539h.093v-1.39h1.36v8.304c0 1.883-1.453 3.086-3.75 3.086Zm-.063-4.61c1.563 0 2.5-1.171 2.5-2.843v-.016c0-1.672-.945-2.867-2.5-2.867-1.562 0-2.437 1.195-2.437 2.867v.016c0 1.672.875 2.843 2.437 2.843Zm9.302 1.789c-2.407 0-3.86-1.687-3.86-4.328v-.008c0-2.601 1.485-4.382 3.774-4.382 2.289 0 3.679 1.703 3.679 4.218v.532h-6.062c.039 1.742 1 2.758 2.5 2.758 1.14 0 1.844-.54 2.07-1.047l.031-.071h1.36l-.016.063c-.289 1.14-1.492 2.265-3.476 2.265Zm-.094-7.507c-1.25 0-2.203.851-2.352 2.453h4.657c-.141-1.664-1.063-2.453-2.305-2.453Zm8.207 7.507c-1.875 0-3.164-.906-3.32-2.296h1.391c.226.703.898 1.164 1.976 1.164 1.133 0 1.938-.539 1.938-1.305v-.016c0-.57-.43-.968-1.469-1.218l-1.305-.313c-1.578-.375-2.289-1.062-2.289-2.273v-.008c0-1.399 1.344-2.453 3.133-2.453 1.766 0 2.992.882 3.18 2.258h-1.336c-.18-.665-.836-1.126-1.852-1.126-1 0-1.734.516-1.734 1.258v.016c0 .57.422.93 1.414 1.172l1.297.312c1.586.383 2.351 1.071 2.351 2.274v.015c0 1.5-1.461 2.539-3.375 2.539Zm6.114-.07a1.024 1.024 0 0 1-1.016-1.016c0-.562.461-1.015 1.016-1.015.563 0 1.016.453 1.016 1.015 0 .555-.453 1.016-1.016 1.016Zm10.282-.078V97.992h-3.633v-1.265h8.672v1.265h-3.632V108h-1.407Zm6.637 0V96.234h1.36v4.61h.125c.422-.89 1.211-1.414 2.453-1.414 1.891 0 2.945 1.117 2.945 3.117V108h-1.359v-5.125c0-1.516-.625-2.242-1.969-2.242s-2.195.906-2.195 2.383V108h-1.36Zm12.302.148c-2.407 0-3.86-1.687-3.86-4.328v-.008c0-2.601 1.485-4.382 3.774-4.382 2.289 0 3.679 1.703 3.679 4.218v.532h-6.062c.039 1.742 1 2.758 2.5 2.758 1.141 0 1.844-.54 2.07-1.047l.031-.071h1.36l-.016.063c-.289 1.14-1.492 2.265-3.476 2.265Zm-.094-7.507c-1.25 0-2.203.851-2.352 2.453h4.657c-.141-1.664-1.063-2.453-2.305-2.453Zm8.207 7.507c-1.875 0-3.164-.906-3.32-2.296h1.391c.226.703.898 1.164 1.976 1.164 1.133 0 1.938-.539 1.938-1.305v-.016c0-.57-.43-.968-1.469-1.218l-1.305-.313c-1.578-.375-2.289-1.062-2.289-2.273v-.008c0-1.399 1.344-2.453 3.133-2.453 1.766 0 2.992.882 3.18 2.258h-1.336c-.18-.665-.836-1.126-1.852-1.126-1 0-1.734.516-1.734 1.258v.016c0 .57.422.93 1.414 1.172l1.297.312c1.586.383 2.351 1.071 2.351 2.274v.015c0 1.5-1.46 2.539-3.375 2.539Zm8.442 0c-2.406 0-3.859-1.687-3.859-4.328v-.008c0-2.601 1.484-4.382 3.773-4.382s3.68 1.703 3.68 4.218v.532h-6.062c.039 1.742 1 2.758 2.5 2.758 1.14 0 1.843-.54 2.07-1.047l.031-.071h1.36l-.016.063c-.289 1.14-1.492 2.265-3.477 2.265Zm-.093-7.507c-1.25 0-2.204.851-2.352 2.453h4.656c-.14-1.664-1.062-2.453-2.304-2.453Zm12.782 7.507c-2.36 0-3.867-1.71-3.867-4.382v-.016c0-2.617 1.5-4.32 3.859-4.32 2.047 0 3.273 1.179 3.523 2.679l.008.047h-1.351l-.008-.023c-.211-.828-.961-1.5-2.172-1.5-1.516 0-2.469 1.219-2.469 3.117v.016c0 1.937.969 3.179 2.469 3.179 1.133 0 1.851-.5 2.164-1.437l.016-.047 1.343-.008-.015.086c-.344 1.523-1.477 2.609-3.5 2.609Zm7.34 0c-1.601 0-2.812-.968-2.812-2.5v-.015c0-1.5 1.109-2.367 3.07-2.485l2.414-.148v-.766c0-1.039-.633-1.601-1.891-1.601-1.007 0-1.672.375-1.89 1.031l-.008.024h-1.359l.007-.047c.219-1.321 1.5-2.211 3.297-2.211 2.055 0 3.203 1.054 3.203 2.804V108h-1.359v-1.242h-.125c-.531.898-1.414 1.39-2.547 1.39Zm-1.422-2.531c0 .852.727 1.352 1.703 1.352 1.383 0 2.391-.907 2.391-2.11v-.765l-2.25.14c-1.281.078-1.844.532-1.844 1.368v.015ZM276 108v-8.422h1.359v1.266h.125c.422-.89 1.211-1.414 2.453-1.414 1.891 0 2.946 1.117 2.946 3.117V108h-1.36v-5.125c0-1.516-.625-2.242-1.969-2.242-1.343 0-2.195.906-2.195 2.383V108H276ZM68.29 126.148c-1.173 0-2.11-.554-2.626-1.492h-.125V126h-1.36v-11.766h1.36v4.672h.125c.461-.898 1.469-1.476 2.625-1.476 2.14 0 3.531 1.711 3.531 4.351v.016c0 2.625-1.398 4.351-3.53 4.351Zm-.313-1.203c1.539 0 2.453-1.187 2.453-3.148v-.016c0-1.961-.914-3.148-2.453-3.148-1.532 0-2.47 1.203-2.47 3.148v.016c0 1.945.938 3.148 2.47 3.148Zm8.91 1.203c-2.406 0-3.86-1.687-3.86-4.328v-.008c0-2.601 1.485-4.382 3.774-4.382 2.29 0 3.68 1.703 3.68 4.218v.532h-6.063c.04 1.742 1 2.758 2.5 2.758 1.141 0 1.844-.54 2.07-1.047l.032-.071h1.36l-.016.063c-.29 1.14-1.492 2.265-3.477 2.265Zm-.094-7.507c-1.25 0-2.203.851-2.351 2.453h4.656c-.14-1.664-1.062-2.453-2.305-2.453Zm12.783 7.507c-2.36 0-3.868-1.71-3.868-4.382v-.016c0-2.617 1.5-4.32 3.86-4.32 2.047 0 3.273 1.179 3.523 2.679l.008.047h-1.352l-.007-.023c-.211-.828-.961-1.5-2.172-1.5-1.516 0-2.469 1.219-2.469 3.117v.016c0 1.937.969 3.179 2.469 3.179 1.133 0 1.851-.5 2.164-1.437l.016-.047 1.343-.008-.015.086c-.344 1.523-1.477 2.609-3.5 2.609Zm8.488 0c-2.398 0-3.882-1.656-3.882-4.351v-.016c0-2.703 1.484-4.351 3.882-4.351 2.399 0 3.883 1.648 3.883 4.351v.016c0 2.695-1.484 4.351-3.883 4.351Zm0-1.203c1.594 0 2.493-1.164 2.493-3.148v-.016c0-1.992-.899-3.148-2.493-3.148-1.593 0-2.492 1.156-2.492 3.148v.016c0 1.984.899 3.148 2.492 3.148Zm5.513 1.055v-8.422h1.359v1.266h.125c.422-.891 1.211-1.414 2.453-1.414 1.891 0 2.945 1.117 2.945 3.117V126H109.1v-5.125c0-1.516-.625-2.242-1.969-2.242s-2.195.906-2.195 2.383V126h-1.359Zm9.426 0v-7.297h-1.399v-1.125h1.399v-.937c0-1.68.844-2.485 2.445-2.485.328 0 .625.024.906.078v1.086a3.715 3.715 0 0 0-.632-.039c-.969 0-1.36.477-1.36 1.399v.898h1.914v1.125h-1.914V126h-1.359Zm5.473-10.047a.94.94 0 0 1-.938-.937.94.94 0 0 1 .938-.938.94.94 0 0 1 .937.938.94.94 0 0 1-.937.937ZM117.788 126v-8.422h1.36V126h-1.36Zm6.911 2.969c-2.031 0-3.328-.914-3.539-2.297l.016-.008h1.406l.008.008c.148.64.898 1.094 2.109 1.094 1.508 0 2.406-.711 2.406-1.954v-1.703h-.125c-.531.93-1.484 1.453-2.64 1.453-2.18 0-3.532-1.687-3.532-4.046v-.016c0-2.359 1.36-4.07 3.563-4.07 1.187 0 2.109.586 2.625 1.539h.094v-1.391h1.359v8.305c0 1.883-1.453 3.086-3.75 3.086Zm-.062-4.61c1.562 0 2.5-1.171 2.5-2.843v-.016c0-1.672-.946-2.867-2.5-2.867-1.563 0-2.438 1.195-2.438 2.867v.016c0 1.672.875 2.843 2.438 2.843Zm8.684 1.789c-1.914 0-2.899-1.125-2.899-3.117v-5.453h1.36v5.125c0 1.516.546 2.242 1.89 2.242 1.485 0 2.274-.906 2.274-2.383v-4.984h1.359V126h-1.359v-1.258h-.125c-.414.899-1.266 1.406-2.5 1.406Zm6.043-.148v-8.422h1.359v1.25h.125c.321-.883 1.11-1.398 2.25-1.398.258 0 .547.031.68.054v1.321a4.876 4.876 0 0 0-.836-.078c-1.297 0-2.219.82-2.219 2.054V126h-1.359Zm8.817.148c-2.406 0-3.859-1.687-3.859-4.328v-.008c0-2.601 1.484-4.382 3.773-4.382s3.68 1.703 3.68 4.218v.532h-6.063c.039 1.742 1 2.758 2.5 2.758 1.141 0 1.844-.54 2.071-1.047l.031-.071h1.359l-.015.063c-.29 1.14-1.493 2.265-3.477 2.265Zm-.094-7.507c-1.25 0-2.203.851-2.351 2.453h4.656c-.141-1.664-1.063-2.453-2.305-2.453Zm8.426 7.507c-2.132 0-3.531-1.726-3.531-4.351v-.016c0-2.64 1.391-4.351 3.531-4.351 1.157 0 2.164.578 2.625 1.476h.125v-4.672h1.36V126h-1.36v-1.344h-.125c-.515.938-1.453 1.492-2.625 1.492Zm.313-1.203c1.531 0 2.469-1.203 2.469-3.148v-.016c0-1.945-.938-3.148-2.469-3.148-1.539 0-2.453 1.187-2.453 3.148v.016c0 1.961.914 3.148 2.453 3.148Zm10.665-8.992a.94.94 0 0 1-.938-.937.94.94 0 0 1 .938-.938.94.94 0 0 1 .937.938.94.94 0 0 1-.937.937ZM166.803 126v-8.422h1.36V126h-1.36Zm3.442 0v-8.422h1.36v1.266h.125c.422-.891 1.211-1.414 2.453-1.414 1.89 0 2.945 1.117 2.945 3.117V126h-1.359v-5.125c0-1.516-.625-2.242-1.969-2.242s-2.195.906-2.195 2.383V126h-1.36Zm16.751.266c-2.469 0-4.062-1.297-4.226-3.133l-.008-.086h1.406l.008.086c.101 1.125 1.273 1.836 2.898 1.836 1.532 0 2.649-.789 2.649-1.938v-.008c0-.937-.649-1.578-2.196-1.921l-1.25-.274c-2.257-.5-3.234-1.539-3.234-3.172v-.008c.008-1.867 1.641-3.187 3.969-3.187 2.25 0 3.82 1.328 3.937 3.008l.008.109h-1.406l-.016-.101c-.156-.993-1.093-1.727-2.562-1.719-1.406.008-2.492.672-2.492 1.851v.008c0 .899.617 1.508 2.148 1.844l1.25.281c2.352.524 3.281 1.469 3.281 3.094v.008c0 2.109-1.648 3.422-4.164 3.422Zm9.294-.118c-2.407 0-3.86-1.687-3.86-4.328v-.008c0-2.601 1.485-4.382 3.774-4.382 2.289 0 3.679 1.703 3.679 4.218v.532h-6.062c.039 1.742 1 2.758 2.5 2.758 1.141 0 1.844-.54 2.07-1.047l.032-.071h1.359l-.016.063c-.289 1.14-1.492 2.265-3.476 2.265Zm-.094-7.507c-1.25 0-2.203.851-2.352 2.453h4.657c-.141-1.664-1.063-2.453-2.305-2.453Zm8.309 7.421c-1.734 0-2.461-.64-2.461-2.25v-5.109h-1.328v-1.125h1.328v-2.18h1.406v2.18h1.844v1.125h-1.844v4.766c0 .992.344 1.39 1.219 1.39.242 0 .375-.007.625-.031v1.156a4.489 4.489 0 0 1-.789.078Zm5.332 0c-1.734 0-2.46-.64-2.46-2.25v-5.109h-1.329v-1.125h1.329v-2.18h1.406v2.18h1.844v1.125h-1.844v4.766c0 .992.344 1.39 1.219 1.39.242 0 .375-.007.625-.031v1.156a4.5 4.5 0 0 1-.79.078Zm3.06-10.109a.94.94 0 0 1-.938-.937.94.94 0 0 1 .938-.938.94.94 0 0 1 .937.938.94.94 0 0 1-.937.937ZM212.209 126v-8.422h1.359V126h-1.359Zm3.442 0v-8.422h1.359v1.266h.125c.422-.891 1.211-1.414 2.453-1.414 1.891 0 2.946 1.117 2.946 3.117V126h-1.36v-5.125c0-1.516-.625-2.242-1.968-2.242-1.344 0-2.196.906-2.196 2.383V126h-1.359Zm12.332 2.969c-2.031 0-3.328-.914-3.539-2.297l.016-.008h1.406l.008.008c.149.64.899 1.094 2.109 1.094 1.508 0 2.407-.711 2.407-1.954v-1.703h-.125c-.532.93-1.485 1.453-2.641 1.453-2.18 0-3.531-1.687-3.531-4.046v-.016c0-2.359 1.359-4.07 3.562-4.07 1.188 0 2.11.586 2.625 1.539h.094v-1.391h1.359v8.305c0 1.883-1.453 3.086-3.75 3.086Zm-.062-4.61c1.562 0 2.5-1.171 2.5-2.843v-.016c0-1.672-.945-2.867-2.5-2.867-1.563 0-2.438 1.195-2.438 2.867v.016c0 1.672.875 2.843 2.438 2.843Zm8.754 1.789c-1.875 0-3.164-.906-3.32-2.296h1.391c.226.703.898 1.164 1.976 1.164 1.133 0 1.938-.539 1.938-1.305v-.016c0-.57-.43-.968-1.469-1.218l-1.305-.313c-1.578-.375-2.289-1.062-2.289-2.273v-.008c0-1.399 1.344-2.453 3.133-2.453 1.766 0 2.992.882 3.18 2.258h-1.336c-.18-.665-.836-1.126-1.852-1.126-1 0-1.734.516-1.734 1.258v.016c0 .57.422.93 1.414 1.172l1.297.312c1.586.383 2.351 1.071 2.351 2.274v.015c0 1.5-1.461 2.539-3.375 2.539Zm6.114-.07a1.024 1.024 0 0 1-1.016-1.016c0-.562.461-1.015 1.016-1.015.563 0 1.016.453 1.016 1.015 0 .555-.453 1.016-1.016 1.016ZM28.115 185v-14.092h4.834c4.18 0 6.65 2.608 6.65 7.031v.02c0 4.434-2.46 7.041-6.65 7.041h-4.834Zm1.758-1.582h2.959c3.145 0 4.97-2.012 4.97-5.439v-.02c0-3.438-1.845-5.469-4.97-5.469h-2.959v10.928Zm16.085 1.768c-2.998 0-4.854-2.071-4.854-5.44v-.019c0-3.379 1.856-5.44 4.854-5.44s4.853 2.061 4.853 5.44v.019c0 3.369-1.855 5.44-4.853 5.44Zm0-1.504c1.992 0 3.115-1.455 3.115-3.936v-.019c0-2.491-1.123-3.936-3.115-3.936-1.992 0-3.115 1.445-3.115 3.936v.019c0 2.481 1.123 3.936 3.115 3.936Zm6.69 1.318v-10.527h1.7v1.582h.156c.527-1.114 1.513-1.768 3.066-1.768 2.363 0 3.682 1.397 3.682 3.897V185h-1.7v-6.406c0-1.895-.78-2.803-2.46-2.803s-2.745 1.133-2.745 2.979V185h-1.699Zm10.87-8.535.85-5.557h1.943l-1.533 5.557h-1.26Zm8.888 8.613c-2.169 0-3.077-.801-3.077-2.812v-6.387h-1.66v-1.406h1.66v-2.725h1.758v2.725h2.305v1.406h-2.305v5.957c0 1.24.43 1.738 1.523 1.738.303 0 .47-.01.782-.039v1.445a5.588 5.588 0 0 1-.986.098Zm6.642-.078 5.195-14.092h1.738L91.177 185H89.33l-1.416-4.033h-5.606L80.893 185h-1.845Zm5.986-11.816-2.207 6.289h4.57l-2.207-6.289h-.156ZM92.73 185v-14.707h1.7V185h-1.7Zm4.259 0v-14.707h1.699V185h-1.7Zm8.487.186c-2.998 0-4.854-2.071-4.854-5.44v-.019c0-3.379 1.856-5.44 4.854-5.44s4.853 2.061 4.853 5.44v.019c0 3.369-1.855 5.44-4.853 5.44Zm0-1.504c1.992 0 3.115-1.455 3.115-3.936v-.019c0-2.491-1.123-3.936-3.115-3.936-1.992 0-3.115 1.445-3.115 3.936v.019c0 2.481 1.123 3.936 3.115 3.936Zm8.331 1.318-2.95-10.527h1.7l2.07 8.418h.156l2.354-8.418h1.611l2.354 8.418h.156l2.07-8.418h1.69L122.068 185h-1.709l-2.353-8.145h-.156L115.506 185h-1.699Zm90.18 0 5-14.092h2.842l5 14.092h-2.637l-1.182-3.643h-5.215L206.623 185h-2.636Zm6.338-11.475-1.895 5.889h3.955l-1.894-5.889h-.166ZM218.294 185v-14.805h2.432V185h-2.432Zm4.806 0v-14.805h2.431V185H223.1Zm9.317.215c-3.203 0-5.137-2.09-5.137-5.547v-.02c0-3.427 1.963-5.527 5.137-5.527 3.183 0 5.137 2.09 5.137 5.527v.02c0 3.457-1.944 5.547-5.137 5.547Zm0-1.973c1.689 0 2.646-1.318 2.646-3.564v-.02c0-2.246-.967-3.574-2.646-3.574-1.69 0-2.656 1.328-2.656 3.574v.02c0 2.246.966 3.564 2.656 3.564Zm8.379 1.758-2.89-10.674h2.441l1.778 8.018h.166l2.05-8.018h2.315l2.07 8.018h.166l1.768-8.018h2.412L250.181 185h-2.549l-2.08-7.734h-.166l-2.07 7.734h-2.52Z"/><path stroke="#fff" stroke-opacity=".72" d="M153.5 203v-51m154.5.5H0"/></svg>